<?xml version="1.0" encoding="utf-8"?>
<!-- Generator: Adobe Illustrator 16.0.0, SVG Export Plug-In . SVG Version: 6.00 Build 0)  -->
<!DOCTYPE svg PUBLIC "-//W3C//DTD SVG 1.1//EN" "http://www.w3.org/Graphics/SVG/1.1/DTD/svg11.dtd">
<svg version="1.1" id="Layer_1" xmlns="http://www.w3.org/2000/svg" xmlns:xlink="http://www.w3.org/1999/xlink" x="0px" y="0px"
	 width="200px" height="267.856px" viewBox="0 0 200 267.856" enable-background="new 0 0 200 267.856" xml:space="preserve">
<g id="_x23_WatermarkLight_8_">
	<path fill-rule="evenodd" clip-rule="evenodd" fill="#FFFFFF" d="M0.025,133.938c0-35.651-0.081-71.295,0.046-106.947
		C0.112,15.907,5.145,7.617,14.699,2.824c9.435-4.729,18.563-3.431,26.76,3.244c6.686,5.444,9.66,12.901,9.66,21.781
		c-0.032,65.213-0.019,130.423-0.019,195.629c0,5.942,0.074,11.887-0.021,17.826c-0.231,14.788-11.617,26.434-25.706,26.37
		c-13.791-0.056-25.249-11.743-25.302-26.343C-0.055,205.534,0.031,169.736,0.025,133.938z"/>
	<path fill-rule="evenodd" clip-rule="evenodd" fill="#FFFFFF" d="M70.708,178.552c0-20.644-0.04-41.28,0.015-61.917
		c0.04-14.387,9.954-25.98,23.149-27.221c13.152-1.228,24.762,7.98,27.467,21.83c0.278,1.443,0.404,2.943,0.404,4.422
		c0.02,41.867,0.076,83.747-0.018,125.617c-0.029,13.232-9.268,24.075-21.841,26.168c-11.957,1.988-24.109-5.858-27.811-18.258
		c-0.912-3.056-1.292-6.403-1.306-9.619C70.656,219.241,70.708,198.89,70.708,178.552z"/>
	<path fill-rule="evenodd" clip-rule="evenodd" fill="#36C92C" d="M121.763,26.9c-0.037,14.888-11.522,26.848-25.713,26.757
		c-14.115-0.084-25.467-12.259-25.342-27.169C70.841,11.952,82.446,0.076,96.442,0.167C110.4,0.257,121.792,12.28,121.763,26.9z"/>
	<path fill-rule="evenodd" clip-rule="evenodd" fill="#D0472D" d="M200,241.094c-0.042,14.894-11.527,26.845-25.715,26.762
		c-14.115-0.085-25.468-12.26-25.341-27.174c0.132-14.539,11.734-26.408,25.734-26.317C188.634,214.448,200.027,226.477,200,241.094
		z"/>
</g>
</svg>
