<?xml version="1.0" encoding="utf-8"?>
<!-- Generator: Adobe Illustrator 16.0.0, SVG Export Plug-In . SVG Version: 6.00 Build 0)  -->
<!DOCTYPE svg PUBLIC "-//W3C//DTD SVG 1.1//EN" "http://www.w3.org/Graphics/SVG/1.1/DTD/svg11.dtd">
<svg version="1.1" id="Layer_1" xmlns="http://www.w3.org/2000/svg" xmlns:xlink="http://www.w3.org/1999/xlink" x="0px" y="0px"
	 width="552px" height="144px" viewBox="0 0 552 144" enable-background="new 0 0 552 144" xml:space="preserve">
<rect fill="none" width="552.001" height="143.945"/>
<g id="_x23_BoardingLogotype_1_">
	<path fill="#F5F5F5" d="M263.3,105.1c-5,2-10,3-15.2,2.9c-18.2-0.3-33.6-14.7-35.1-32.7c-1.8-21.9,15.3-39.8,37.4-39.1
		c18.5,0.6,34.2,16.2,34.4,34.7c0.2,13.1,0.3,26.2-0.1,39.3c-0.5,15.1-11.4,28.8-27.1,32.6c-16.6,4.101-33.6-3-41.3-18.2
		c-2.8-5.5-0.5-12.199,5-14.8c5.4-2.6,11.9-0.3,14.5,5.101c3,6.199,9.4,9.301,16.1,7.801c6.4-1.5,11.2-8,11.3-14.7
		C263.3,107.2,263.3,106.3,263.3,105.1z M263.2,72.1c0-7.9-6.4-14.4-14.4-14.4c-7.8,0-14.4,6.5-14.4,14.2c0,8,6.4,14.5,14.3,14.5
		C256.8,86.5,263.2,80.1,263.2,72.1z"/>
	<path fill="#F5F5F5" d="M451.8,39.1c0-1.9,0-3.5,0-5.2c0-7.6,0.602-15.1,0.7-22.7c0-4.5,2.3-7.9,6.3-9.9
		c3.7-1.9,7.7-1.6,11.102,0.7c3.198,2.2,4.8,5.3,4.8,9.2c0,14.4,0,28.7,0,43.1c0,14.1-0.102,28.101,0.1,42.2
		c0.102,7.1-5.3,12-11.8,11.8c-8-0.2-16.1,0-24.1-0.1c-18.4,0-33.2-12.601-36.2-30.8c-3.2-19.5,11.5-38.8,31.1-41
		c6.2-0.7,11.4,0,17.2,2.2C451.4,38.8,451.8,38.9,451.8,39.1z M452.8,72.1c0-7.9-6.5-14.4-14.3-14.3c-8,0-14.5,6.5-14.5,14.4
		c0,7.899,6.5,14.399,14.5,14.399C446.4,86.6,452.9,80.1,452.8,72.1z"/>
	<path fill="#F5F5F5" d="M504.1,78.1c0.2,3,1.802,5.801,4.302,7.2c4.398,2.5,9.198,3.101,14.1,2.9c5.3-0.2,9.7-2.601,14.4-4.601
		c2-0.899,4.3-1.699,6.3-1.5c7.1,0.699,10.3,8.801,5.8,14.601c-1.5,2-3.5,3.899-5.7,5.1c-12.5,6.601-25.7,8.5-39.1,3.9
		c-14-4.8-21.3-15.4-22.7-29.9c-1.7-18.6,10.6-34.7,28.9-38.5c19.5-4,37.198,7.7,41,27c0.5,2.3,0.6,4.8,0.6,7.1
		c-0.1,4.9-2.3,7.2-7.2,7.7c-1,0.102-1.898-0.398-2.898-0.398c-11.802,0-23.7-0.5-35.5-0.5C505.7,78.1,505,78.1,504.1,78.1z
		 M504.2,63.1c8.898,0,17.8,0,26.7,0c-0.4-3-7-10.3-13.802-10.2C510.8,53,504.3,60.1,504.2,63.1z"/>
	<path fill="#F5F5F5" d="M160.5-50.9c0.1,3,1,4.801,2.9,6c1.8,1.2,3.8,2.4,5.9,2.9c7,1.8,13.9,1.2,20.4-2c1.7-0.9,3.5-1.7,5.3-2.5
		c4.1-1.9,8-1.2,10.8,1.9c2.7,2.898,3.1,7.5,0.9,11.1c-2.1,3.4-5.3,5.6-8.9,7.3c-11.1,5-22.7,6.4-34.5,3.4
		C148-26.7,138.2-39.4,137.6-55.7c-0.7-17.2,10.8-32.3,27.7-36.4c17.2-4.1,34,3.6,40.8,18.8c2.5,5.5,3.7,11.2,2.8,17.2
		c-0.4,2.8-2.1,4.6-4.8,5.199c-1.6,0.399-3.4,0.301-5.1,0.301c-12,0-24-0.2-36-0.2C162.3-50.9,161.5-50.9,160.5-50.9z M187.6-66.9
		c0.2-3-6.8-10.5-13.8-10.3c-6.5,0.2-13.1,7.3-13.2,10.3C169.6-66.9,178.6-66.9,187.6-66.9z"/>
	<path fill="#F5F5F5" d="M365.9,60.7c0,5.6,0.1,11.3-0.4,16.8c-1.6,15.5-15.2,28.9-30.8,30.6C313.7,110.4,295.9,96.2,294,75.4
		c-0.6-6.2-0.2-12.602-0.2-18.8c0-3.1,0-6.2,0.101-9.3c0.199-5.6,4.399-10.1,9.899-10.6c5.4-0.5,10.3,3.1,11.5,8.5
		c0.2,1.1,0.2,2.3,0.2,3.4c0.1,11.1,0,18.3,0.1,24.4c0.102,7.9,6.7,14.1,14.602,14c7.7-0.1,14-6.4,14.1-14.1
		c0.102-8.602,0-17.2,0-25.9c0-4.4,2.4-7.7,6.4-9.6c3.8-1.9,7.6-1.5,11.1,0.9c2.9,2,4,4.6,4.102,8.2C366,51.1,365.9,55.9,365.9,60.7
		C365.8,60.7,366,60.7,365.9,60.7z"/>
	<path fill="#F5F5F5" d="M96.8,72.3c0.4-0.7,0.8-1.2,1.1-1.8c5.5-9.4,10.9-18.9,16.4-28.2c4.4-7.4,14.3-8.2,19.7-1.7
		c3.2,3.9,3.6,9.1,0.9,13.8c-7.1,12.2-14.2,24.4-21.2,36.6c-2.1,3.6-4.2,7.3-6.3,10.9c-4.8,8.199-16.2,8.3-21,0.1
		C77.2,86.2,68.1,70.4,59,54.6c-1.8-3.2-2.5-6.5-1.3-10c1.6-4.9,5.1-7.7,10.1-8.3c5-0.6,9.1,1.5,11.7,5.9
		c5.1,8.7,10.2,17.5,15.2,26.2C95.3,69.7,96,70.9,96.8,72.3z"/>
	<path fill="#F5F5F5" d="M0,54.1C0,39.7,0,25.4,0,11c0-4.5,2.2-7.8,6.2-9.7c4-1.9,7.9-1.4,11.3,1.3c2.8,2.2,4.1,5.2,4.1,8.8
		c0,26.3,0,52.5,0,78.8c0,2.399,0,4.8,0,7.2c-0.1,6-4.9,10.6-10.9,10.6C4.9,108,0.1,103.3,0,97.4C0,83,0,68.6,0,54.1z"/>
	<path fill="#F5F5F5" d="M396.6,72.1c0,9,0.102,17,0,25.4c-0.1,4.5-2.398,7.8-6.5,9.6c-4.1,1.801-8,1.102-11.398-1.8
		c-2.5-2.1-3.7-4.899-3.7-8.1c0-16.7-0.1-33.5,0-50.2c0-6.2,4.9-10.8,10.9-10.8s10.6,4.6,10.698,10.9
		C396.7,55.4,396.6,63.1,396.6,72.1L396.6,72.1z"/>
	<path fill="#F5F5F5" d="M30,72.1c0-8.3,0-16.6,0-24.9c0-5.8,4.2-10.5,9.8-11c5.6-0.5,10.5,3.2,11.6,8.8c0.1,0.6,0.2,1.2,0.2,1.8
		c0,16.9,0,33.7,0,50.601c0,5.301-3.9,9.699-9.2,10.5c-5.1,0.801-10.2-2.399-11.8-7.399c-0.4-1.2-0.5-2.601-0.6-3.899
		C30,88.5,30,80.3,30,72.1z"/>
	<path fill="#D0472D" d="M396.6,11.2c-0.1,6-5,10.7-11,10.6C379.7,21.7,374.9,16.7,375,10.9c0.1-6,5.1-10.7,11.1-10.6
		C392,0.4,396.7,5.3,396.6,11.2z"/>
	<path fill="#36C92C" d="M51.6,11c0,6-4.9,10.8-10.9,10.8S29.9,16.9,30,10.9C30.1,5,35,0.2,40.9,0.3C46.8,0.3,51.6,5.2,51.6,11z"/>
</g>
<g id="_x23_BoardingLogotype_2_">
	<path fill="#F5F5F5" d="M130.869-460.276c-5,2-10,3-15.2,2.9c-18.2-0.3-33.6-14.7-35.1-32.7c-1.8-21.9,15.3-39.8,37.4-39.1
		c18.5,0.6,34.2,16.2,34.4,34.7c0.2,13.1,0.3,26.2-0.1,39.3c-0.5,15.1-11.4,28.8-27.1,32.6c-16.6,4.101-33.6-3-41.3-18.2
		c-2.8-5.5-0.5-12.199,5-14.8c5.4-2.6,11.9-0.3,14.5,5.101c3,6.199,9.4,9.301,16.1,7.801c6.4-1.5,11.2-8,11.3-14.7
		C130.869-458.175,130.869-459.076,130.869-460.276z M130.77-493.275c0-7.9-6.4-14.4-14.4-14.4c-7.8,0-14.4,6.5-14.4,14.2
		c0,8,6.4,14.5,14.3,14.5C124.369-478.875,130.77-485.276,130.77-493.275z"/>
	<path fill="#F5F5F5" d="M317.369-526.275c0-1.9,0-3.5,0-5.2c0-7.6,0.602-15.1,0.7-22.7c0-4.5,2.3-7.9,6.3-9.9
		c3.7-1.9,7.7-1.6,11.102,0.7c3.198,2.2,4.8,5.3,4.8,9.2c0,14.4,0,28.7,0,43.1c0,14.1-0.102,28.101,0.1,42.2
		c0.102,7.1-5.3,12-11.8,11.8c-8-0.2-16.1,0-24.1-0.1c-18.4,0-33.2-12.601-36.2-30.8c-3.2-19.5,11.5-38.8,31.1-41
		c6.2-0.7,11.4,0,17.2,2.2C316.97-526.576,317.369-526.476,317.369-526.275z M318.369-493.275c0-7.9-6.5-14.4-14.3-14.3
		c-8,0-14.5,6.5-14.5,14.4c0,7.899,6.5,14.399,14.5,14.399C311.97-478.776,318.47-485.276,318.369-493.275z"/>
	<path fill="#F5F5F5" d="M365.669-637.276c0.2,3,1.802,5.801,4.302,7.2c4.398,2.5,9.198,3.101,14.1,2.9
		c5.3-0.2,9.7-2.601,14.4-4.601c2-0.899,4.3-1.699,6.3-1.5c7.1,0.699,10.3,8.801,5.8,14.601c-1.5,2-3.5,3.899-5.7,5.1
		c-12.5,6.601-25.7,8.5-39.1,3.9c-14-4.8-21.3-15.4-22.7-29.9c-1.7-18.6,10.6-34.7,28.9-38.5c19.5-4,37.198,7.7,41,27
		c0.5,2.3,0.6,4.8,0.6,7.1c-0.1,4.9-2.3,7.2-7.2,7.7c-1,0.102-1.898-0.398-2.898-0.398c-11.802,0-23.7-0.5-35.5-0.5
		C367.27-637.276,366.569-637.276,365.669-637.276z M365.77-652.275c8.898,0,17.8,0,26.7,0c-0.4-3-7-10.3-13.802-10.2
		C372.369-662.375,365.869-655.275,365.77-652.275z"/>
	<path fill="#F5F5F5" d="M22.069-616.276c0.1,3,1,4.801,2.9,6c1.8,1.2,3.8,2.4,5.9,2.9c7,1.8,13.9,1.2,20.4-2
		c1.7-0.9,3.5-1.7,5.3-2.5c4.1-1.9,8-1.2,10.8,1.9c2.7,2.898,3.1,7.5,0.9,11.1c-2.1,3.4-5.3,5.6-8.9,7.3c-11.1,5-22.7,6.4-34.5,3.4
		c-15.3-3.9-25.1-16.601-25.7-32.9c-0.7-17.2,10.8-32.3,27.7-36.4c17.2-4.1,34,3.6,40.8,18.8c2.5,5.5,3.7,11.2,2.8,17.2
		c-0.4,2.8-2.1,4.6-4.8,5.199c-1.6,0.399-3.4,0.301-5.1,0.301c-12,0-24-0.2-36-0.2C23.869-616.276,23.069-616.276,22.069-616.276z
		 M49.169-632.276c0.2-3-6.8-10.5-13.8-10.3c-6.5,0.2-13.1,7.3-13.2,10.3C31.169-632.276,40.169-632.276,49.169-632.276z"/>
	<path fill="#F5F5F5" d="M231.47-504.675c0,5.6,0.1,11.3-0.4,16.8c-1.6,15.5-15.2,28.9-30.8,30.6c-21,2.301-38.8-11.899-40.7-32.699
		c-0.6-6.2-0.2-12.602-0.2-18.8c0-3.1,0-6.2,0.101-9.3c0.199-5.6,4.399-10.1,9.899-10.6c5.4-0.5,10.3,3.1,11.5,8.5
		c0.2,1.1,0.2,2.3,0.2,3.4c0.1,11.1,0,18.3,0.1,24.4c0.102,7.9,6.7,14.1,14.602,14c7.7-0.1,14-6.4,14.1-14.1
		c0.102-8.602,0-17.2,0-25.9c0-4.4,2.4-7.7,6.4-9.6c3.8-1.9,7.6-1.5,11.1,0.9c2.9,2,4,4.6,4.102,8.2
		C231.569-514.275,231.47-509.476,231.47-504.675C231.369-504.675,231.569-504.675,231.47-504.675z"/>
	<path fill="#F5F5F5" d="M-41.631-493.076c0.4-0.7,0.8-1.2,1.1-1.8c5.5-9.4,10.9-18.9,16.4-28.2c4.4-7.4,14.3-8.2,19.7-1.7
		c3.2,3.9,3.6,9.1,0.9,13.8c-7.1,12.2-14.2,24.4-21.2,36.6c-2.1,3.6-4.2,7.3-6.3,10.9c-4.8,8.199-16.2,8.3-21,0.1
		c-9.2-15.8-18.3-31.6-27.4-47.4c-1.8-3.2-2.5-6.5-1.3-10c1.6-4.9,5.1-7.7,10.1-8.3c5-0.6,9.1,1.5,11.7,5.9
		c5.1,8.7,10.2,17.5,15.2,26.2C-43.131-495.675-42.431-494.476-41.631-493.076z"/>
	<path fill="#F5F5F5" d="M-138.431-511.275c0-14.4,0-28.7,0-43.1c0-4.5,2.2-7.8,6.2-9.7c4-1.9,7.9-1.4,11.3,1.3
		c2.8,2.2,4.1,5.2,4.1,8.8c0,26.3,0,52.5,0,78.8c0,2.399,0,4.8,0,7.2c-0.1,6-4.9,10.6-10.9,10.6c-5.8,0-10.6-4.7-10.7-10.6
		C-138.431-482.375-138.431-496.775-138.431-511.275z"/>
	<path fill="#F5F5F5" d="M262.169-493.275c0,9,0.102,17,0,25.4c-0.1,4.5-2.398,7.8-6.5,9.6c-4.1,1.801-8,1.102-11.398-1.8
		c-2.5-2.1-3.7-4.899-3.7-8.1c0-16.7-0.1-33.5,0-50.2c0-6.2,4.9-10.8,10.9-10.8s10.6,4.6,10.698,10.9
		C262.27-509.976,262.169-502.275,262.169-493.275L262.169-493.275z"/>
	<path fill="#F5F5F5" d="M-108.431-493.275c0-8.3,0-16.6,0-24.9c0-5.8,4.2-10.5,9.8-11c5.6-0.5,10.5,3.2,11.6,8.8
		c0.1,0.6,0.2,1.2,0.2,1.8c0,16.9,0,33.7,0,50.601c0,5.301-3.9,9.699-9.2,10.5c-5.1,0.801-10.2-2.399-11.8-7.399
		c-0.4-1.2-0.5-2.601-0.6-3.899C-108.431-476.875-108.431-485.076-108.431-493.275z"/>
	<path fill="#F5F5F5" d="M39.358-529.18c8.3,0,16.6,0,24.9,0c5.8,0,10.5,4.2,11,9.8c0.5,5.6-3.2,10.5-8.8,11.6
		c-0.6,0.1-1.2,0.2-1.8,0.2c-16.9,0-33.7,0-50.601,0c-5.301,0-9.699-3.9-10.5-9.2c-0.801-5.1,2.399-10.2,7.399-11.8
		c1.2-0.4,2.601-0.5,3.899-0.6C22.958-529.18,31.159-529.18,39.358-529.18z"/>
	<path fill="#F5F5F5" d="M39.358-478.875c8.3,0,16.6,0,24.9,0c5.8,0,10.5,4.2,11,9.8s-3.2,10.5-8.8,11.6c-0.6,0.101-1.2,0.2-1.8,0.2
		c-16.9,0-33.7,0-50.601,0c-5.301,0-9.699-3.899-10.5-9.2c-0.801-5.1,2.399-10.199,7.399-11.8c1.2-0.399,2.601-0.5,3.899-0.6
		C22.958-478.875,31.159-478.875,39.358-478.875z"/>
	<path fill="#F5F5F5" d="M39.358-504.18c8.3,0,16.6,0,24.9,0c5.8,0,10.5,4.2,11,9.8c0.5,5.6-3.2,10.5-8.8,11.6
		c-0.6,0.1-1.2,0.2-1.8,0.2c-16.9,0-33.7,0-50.601,0c-5.301,0-9.699-3.9-10.5-9.2c-0.801-5.1,2.399-10.2,7.399-11.8
		c1.2-0.4,2.601-0.5,3.899-0.6C22.958-504.18,31.159-504.18,39.358-504.18z"/>
	<path fill="#F5F5F5" d="M382.025-529.056c8.3,0,16.6,0,24.899,0c5.8,0,10.5,4.2,11,9.8c0.5,5.6-3.2,10.5-8.8,11.6
		c-0.6,0.1-1.2,0.2-1.8,0.2c-16.9,0-33.7,0-50.601,0c-5.301,0-9.699-3.9-10.5-9.2c-0.801-5.1,2.399-10.2,7.399-11.8
		c1.2-0.4,2.601-0.5,3.899-0.6C365.625-529.056,373.825-529.056,382.025-529.056z"/>
	<path fill="#F5F5F5" d="M382.025-478.75c8.3,0,16.6,0,24.899,0c5.8,0,10.5,4.2,11,9.8s-3.2,10.5-8.8,11.6
		c-0.6,0.101-1.2,0.2-1.8,0.2c-16.9,0-33.7,0-50.601,0c-5.301,0-9.699-3.899-10.5-9.2c-0.801-5.1,2.399-10.199,7.399-11.8
		c1.2-0.399,2.601-0.5,3.899-0.6C365.625-478.75,373.825-478.75,382.025-478.75z"/>
	<path fill="#F5F5F5" d="M382.025-504.056c8.3,0,16.6,0,24.899,0c5.8,0,10.5,4.2,11,9.8c0.5,5.6-3.2,10.5-8.8,11.6
		c-0.6,0.1-1.2,0.2-1.8,0.2c-16.9,0-33.7,0-50.601,0c-5.301,0-9.699-3.9-10.5-9.2c-0.801-5.1,2.399-10.2,7.399-11.8
		c1.2-0.4,2.601-0.5,3.899-0.6C365.625-504.056,373.825-504.056,382.025-504.056z"/>
	<path fill="#D0472D" d="M258.169-554.175c-0.1,6-5,10.7-11,10.6c-5.899-0.1-10.699-5.1-10.6-10.9c0.1-6,5.1-10.7,11.1-10.6
		C253.569-564.976,258.27-560.076,258.169-554.175z"/>
	<path fill="#36C92C" d="M-86.831-554.375c0,6-4.9,10.8-10.9,10.8s-10.8-4.9-10.7-10.9c0.1-5.9,5-10.7,10.9-10.6
		C-91.631-565.076-86.831-560.175-86.831-554.375z"/>
	<rect x="-234.75" y="-441" width="80" height="80"/>
	<rect x="-324.75" y="-481" width="80" height="120"/>
	<g>
		<path fill="#F5F5F5" d="M-54.75-431c0,5.523-4.477,10-10,10h-60c-5.523,0-10-4.477-10-10l0,0c0-5.523,4.477-10,10-10h60
			C-59.227-441-54.75-436.523-54.75-431L-54.75-431z"/>
		<path fill="#F5F5F5" d="M-54.75-371c0,5.523-4.477,10-10,10h-60c-5.523,0-10-4.477-10-10l0,0c0-5.523,4.477-10,10-10h60
			C-59.227-381-54.75-376.523-54.75-371L-54.75-371z"/>
		<path fill="#F5F5F5" d="M-54.75-401c0,5.523-4.477,10-10,10h-60c-5.523,0-10-4.477-10-10l0,0c0-5.523,4.477-10,10-10h60
			C-59.227-411-54.75-406.523-54.75-401L-54.75-401z"/>
	</g>
</g>
<g>
	<path fill="#FFFFFF" d="M81.896,167.861c7.877,0,14.286,6.409,14.286,14.287c0,7.877-6.409,14.285-14.286,14.285
		s-14.286-6.408-14.286-14.285C67.61,174.271,74.019,167.861,81.896,167.861 M81.896,145.861c-20.04,0-36.286,16.246-36.286,36.287
		c0,20.039,16.246,36.285,36.286,36.285s36.286-16.246,36.286-36.285C118.183,162.107,101.937,145.861,81.896,145.861
		L81.896,145.861z"/>
</g>
<circle fill="none" stroke="#FFFFFF" stroke-width="22" stroke-miterlimit="10" cx="171.896" cy="72.148" r="25.25"/>
<g>
	<path fill="#FFFFFF" d="M171.896,167.861c7.877,0,14.286,6.409,14.286,14.287c0,7.877-6.409,14.285-14.286,14.285
		s-14.286-6.408-14.286-14.285C157.61,174.271,164.019,167.861,171.896,167.861 M171.896,145.861
		c-20.04,0-36.286,16.246-36.286,36.287c0,20.039,16.246,36.285,36.286,36.285s36.286-16.246,36.286-36.285
		C208.183,162.107,191.937,145.861,171.896,145.861L171.896,145.861z"/>
</g>
<line fill="none" stroke="#FFFFFF" stroke-width="22" stroke-linecap="round" stroke-linejoin="round" stroke-miterlimit="10" x1="146.646" y1="72.147" x2="197.146" y2="72.147"/>
<circle fill="none" stroke="#FFFFFF" stroke-width="22" stroke-miterlimit="10" cx="396.645" cy="225.501" r="25.25"/>
<line fill="none" stroke="#FFFFFF" stroke-width="22" stroke-linecap="round" stroke-linejoin="round" stroke-miterlimit="10" x1="371.395" y1="225.5" x2="421.895" y2="225.5"/>
<circle fill="none" stroke="#FFFFFF" stroke-width="22" stroke-miterlimit="10" cx="535.645" cy="225.501" r="25.25"/>
<line fill="none" stroke="#FFFFFF" stroke-width="22" stroke-linecap="round" stroke-linejoin="round" stroke-miterlimit="10" x1="510.395" y1="225.5" x2="560.895" y2="225.5"/>
<circle fill="none" stroke="#1515AA" stroke-width="22" stroke-miterlimit="10" cx="284.975" cy="213.001" r="25.25"/>
<line fill="none" stroke="#1515AA" stroke-width="22" stroke-linecap="round" stroke-linejoin="round" stroke-miterlimit="10" x1="259.725" y1="213" x2="310.225" y2="213"/>
<rect x="535.645" y="236.5" fill="#5D5D5D" width="42.855" height="3.219"/>
<circle fill="none" stroke="#FFFFFF" stroke-width="15" stroke-miterlimit="10" cx="457.979" cy="319.168" r="25.25"/>
<line fill="none" stroke="#FFFFFF" stroke-width="15" stroke-linecap="round" stroke-linejoin="round" stroke-miterlimit="10" x1="432.729" y1="319.167" x2="483.229" y2="319.167"/>
<rect x="457.979" y="326.687" fill="#5D5D5D" width="42.855" height="10.209"/>
<circle fill="none" stroke="#FFFFFF" stroke-width="15" stroke-miterlimit="10" cx="310.225" cy="344.418" r="25.25"/>
<line fill="none" stroke="#FFFFFF" stroke-width="15" stroke-linecap="round" stroke-linejoin="round" stroke-miterlimit="10" x1="284.975" y1="344.417" x2="335.475" y2="344.417"/>
<rect x="310.225" y="351.969" fill="#5D5D5D" width="42.855" height="5"/>
<path fill="none" stroke="#FFFFFF" stroke-width="22" stroke-miterlimit="10" d="M680.272,237.754
	c-3.603,9.542-12.823,16.329-23.628,16.329c-13.945,0-25.25-11.305-25.25-25.249c0-13.946,11.305-25.251,25.25-25.251
	s25.25,11.305,25.25,25.251"/>
<rect x="656.645" y="237.501" fill="#5D5D5D" width="42.855" height="5.551"/>
<line fill="none" stroke="#FFFFFF" stroke-width="22" stroke-linecap="round" stroke-linejoin="round" stroke-miterlimit="10" x1="631.395" y1="228.833" x2="681.895" y2="228.833"/>
<path fill="none" stroke="#FFFFFF" stroke-width="22" stroke-linecap="round" stroke-miterlimit="10" d="M789.209,247.289
	c-4.512,4.215-10.57,6.794-17.231,6.794c-13.945,0-25.25-11.305-25.25-25.249c0-13.946,11.305-25.251,25.25-25.251
	s25.25,11.305,25.25,25.251"/>
<rect x="771.978" y="237.501" fill="#5D5D5D" width="42.855" height="5.551"/>
<line fill="none" stroke="#FFFFFF" stroke-width="22" stroke-linecap="round" stroke-linejoin="round" stroke-miterlimit="10" x1="746.728" y1="228.833" x2="797.228" y2="228.833"/>
<path fill="none" stroke="#FFFFFF" stroke-width="20" stroke-linecap="round" stroke-miterlimit="10" d="M900.209,247.289
	c-4.512,4.215-10.57,6.794-17.231,6.794c-13.945,0-25.25-11.305-25.25-25.249c0-13.946,11.305-25.251,25.25-25.251
	s25.25,11.305,25.25,25.251"/>
<rect x="922.978" y="237.501" fill="#5D5D5D" width="42.855" height="5.551"/>
<line fill="none" stroke="#FFFFFF" stroke-width="20" stroke-linecap="round" stroke-linejoin="round" stroke-miterlimit="10" x1="857.728" y1="228.833" x2="908.228" y2="228.833"/>
<path fill="none" stroke="#FFFFFF" stroke-width="15" stroke-linecap="round" stroke-miterlimit="10" d="M1049.876,251.289
	c-4.512,4.215-10.57,6.794-17.231,6.794c-13.945,0-25.25-11.305-25.25-25.249c0-13.946,11.305-25.251,25.25-25.251
	s25.25,11.305,25.25,25.251"/>
<rect x="1072.645" y="241.501" fill="#5D5D5D" width="42.855" height="5.551"/>
<line fill="none" stroke="#FFFFFF" stroke-width="15" stroke-linecap="round" stroke-linejoin="round" stroke-miterlimit="10" x1="1007.395" y1="232.833" x2="1057.895" y2="232.833"/>
<path fill="none" stroke="#FFFFFF" stroke-width="15" stroke-linecap="round" stroke-miterlimit="10" d="M1144.831,323.021
	c-9.86,9.861-25.848,9.861-35.708,0.001c-9.861-9.861-9.861-25.849-0.001-35.71c9.862-9.86,25.849-9.86,35.71,0"/>
<line fill="none" stroke="#FFFFFF" stroke-width="15" stroke-linecap="round" stroke-linejoin="round" stroke-miterlimit="10" x1="1101.727" y1="305.167" x2="1131.727" y2="305.167"/>
<path fill="none" stroke="#FFFFFF" stroke-width="15" stroke-linecap="round" stroke-miterlimit="10" d="M1242.87,368.81
	c-12.451,6.281-27.636,1.281-33.918-11.17c-6.28-12.449-1.28-27.634,11.169-33.916c6.435-3.248,13.601-3.479,19.891-1.228"/>
<line fill="none" stroke="#FFFFFF" stroke-width="15" stroke-linecap="round" stroke-linejoin="round" stroke-miterlimit="10" x1="1206.602" y1="345.375" x2="1236.602" y2="345.375"/>
</svg>
